<?xml version="1.0" encoding="utf-8"?>
<!-- Generator: Adobe Illustrator 19.0.0, SVG Export Plug-In . SVG Version: 6.00 Build 0)  -->
<svg version="1.1" id="Layer_1" xmlns="http://www.w3.org/2000/svg" xmlns:xlink="http://www.w3.org/1999/xlink" x="0px" y="0px"
	 viewBox="-47 336 500.3 170.9" style="enable-background:new -47 336 500.3 170.9;" xml:space="preserve">
<style type="text/css">
	.st0{stroke:#FFFFFF;stroke-width:0.5;stroke-miterlimit:10;}
</style>
<g>
	<path d="M75.8,388.1h10.7v57.7h23.7v9.6H75.8C75.8,455.4,75.8,388.1,75.8,388.1z"/>
	<path d="M116.7,388.1h9.6v9.9h-9.6V388.1z M116.7,405.7h9.6V455h-9.6V405.7z"/>
	<path d="M138.5,405.7h8.8c0,2.3,0,5,0,7.6c2.3-5,8-9.2,16.8-9.2c15.7,0,19.9,11.5,19.9,21.8v29h-9.6v-26.8c0-8.8-3.4-15.3-13-15.3
		c-9.2,0-13.4,6.1-13.4,14.5V455h-9.6L138.5,405.7L138.5,405.7z"/>
	<path d="M196.6,388.1h9.6v37.1l19.5-19.5h11.5L215,427.5l22.5,27.5h-11.1l-20.3-25.2V455h-9.6L196.6,388.1L196.6,388.1z"/>
	<path class="st0" d="M244.8,388.1h19.1c10.3,0,16.1,1.5,19.5,3.8c5.7,3.4,8.8,10.7,8.8,18c0,4.6-1.1,9.2-3.8,13
		c-3.4,5-7.6,6.5-13,7.3L291,455h-11.5l-18.3-30.2c0.8,0,1.5,0,2.3,0c4.6,0,10.3-0.4,13.4-3.1s4.6-6.5,4.6-11.1
		c0-4.6-2.3-9.2-5.7-11.5c-3.1-1.9-6.5-2.3-11.5-2.3h-9.2v57.7h-10.7v-66.5H244.8z"/>
	<path class="st0" d="M300.6,388.1H338v9.6h-26.8v19.1h26.4v9.6h-26.4v19.9H338v9.6h-37.5L300.6,388.1L300.6,388.1z"/>
</g>
</svg>
