<?xml version="1.0" encoding="utf-8"?>
<!-- Generator: Adobe Illustrator 18.1.0, SVG Export Plug-In . SVG Version: 6.00 Build 0)  -->
<svg version="1.1" id="Layer_1" xmlns="http://www.w3.org/2000/svg" xmlns:xlink="http://www.w3.org/1999/xlink" x="0px" y="0px"
	 viewBox="0 0 83 83.8" enable-background="new 0 0 83 83.8" xml:space="preserve">
<circle opacity="0.88" fill="#7D7D7D" cx="42" cy="41.8" r="39.9"/>
<g>
	<path fill="#FFFFFF" d="M7.7,33.3h2.8v15.1h6.2v2.5h-9V33.3z"/>
	<path fill="#FFFFFF" d="M18.4,33.3h2.5v2.6h-2.5V33.3z M18.4,37.9h2.5v12.9h-2.5V37.9z"/>
	<path fill="#FFFFFF" d="M24.1,37.9h2.3c0,0.6,0,1.3,0,2c0.6-1.3,2.1-2.4,4.4-2.4c4.1,0,5.2,3,5.2,5.7v7.6h-2.5v-7
		c0-2.3-0.9-4-3.4-4c-2.4,0-3.5,1.6-3.5,3.8v7.2h-2.5V37.9z"/>
	<path fill="#FFFFFF" d="M39.3,33.3h2.5V43l5.1-5.1h3l-5.8,5.7l5.9,7.2h-2.9l-5.3-6.6v6.6h-2.5V33.3z"/>
	<path fill="#FFFFFF" stroke="#FFFFFF" stroke-width="0.5" stroke-miterlimit="10" d="M51.9,33.3h5c2.7,0,4.2,0.4,5.1,1
		c1.5,0.9,2.3,2.8,2.3,4.7c0,1.2-0.3,2.4-1,3.4c-0.9,1.3-2,1.7-3.4,1.9l4.1,6.5h-3l-4.8-7.9c0.2,0,0.4,0,0.6,0
		c1.2,0,2.7-0.1,3.5-0.8c0.8-0.7,1.2-1.7,1.2-2.9c0-1.2-0.6-2.4-1.5-3c-0.8-0.5-1.7-0.6-3-0.6h-2.4v15.1h-2.8V33.3z"/>
	<path fill="#FFFFFF" stroke="#FFFFFF" stroke-width="0.5" stroke-miterlimit="10" d="M66.5,33.3h9.8v2.5h-7v5h6.9v2.5h-6.9v5.2h7
		v2.5h-9.8V33.3z"/>
</g>
</svg>
